<?xml version="1.0" encoding="UTF-8"?>
<svg xmlns="http://www.w3.org/2000/svg" xmlns:xlink="http://www.w3.org/1999/xlink" width="3001" height="3001" viewBox="0 0 3001 3001">
<path fill-rule="evenodd" fill="rgb(100%, 100%, 100%)" fill-opacity="1" d="M 0.769531 0.988281 L 3000.769531 0.988281 L 3000.769531 3000.984375 L 0.769531 3000.984375 L 0.769531 0.988281 "/>
<path fill-rule="nonzero" fill="rgb(0%, 0%, 0%)" fill-opacity="1" d="M 1124.390625 852.429688 C 1125.46875 851.691406 1126.609375 851.058594 1127.789062 850.519531 C 1306.671875 747.921875 1510.179688 727.160156 1694.851562 776.640625 C 1879.710938 826.171875 2045.738281 946.058594 2149.320312 1124.601562 C 2150.058594 1125.691406 2150.699219 1126.828125 2151.238281 1128 C 2253.828125 1306.890625 2274.589844 1510.398438 2225.121094 1695.058594 C 2175.589844 1879.929688 2055.691406 2045.949219 1877.160156 2149.539062 C 1876.070312 2150.277344 1874.929688 2150.917969 1873.761719 2151.449219 C 1694.859375 2254.046875 1491.359375 2274.808594 1306.699219 2225.328125 C 1121.828125 2175.800781 955.808594 2055.910156 852.21875 1877.371094 C 851.476562 1876.28125 850.839844 1875.140625 850.304688 1873.96875 C 747.710938 1695.078125 726.949219 1491.570312 776.425781 1306.910156 C 825.957031 1122.039062 945.847656 956.019531 1124.390625 852.429688 Z M 1683.121094 820.5 C 1647.488281 810.949219 1611.101562 804.179688 1574.320312 800.289062 C 1683.609375 851.140625 1778.601562 927.53125 1851.578125 1021.78125 C 1945.910156 1143.601562 2003.558594 1295.230469 2007.960938 1460.039062 C 2073.609375 1466.050781 2139.488281 1462.710938 2203.628906 1450.550781 C 2196.351562 1347.789062 2166.328125 1245.070312 2111.589844 1149.828125 L 2110.910156 1148.738281 C 2013.640625 980.269531 1857.28125 867.148438 1683.121094 820.5 Z M 1438.28125 799.078125 C 1363.179688 805.710938 1288.238281 824.539062 1216.390625 856.320312 C 1294.121094 879.03125 1367.550781 914.128906 1433.78125 959.941406 C 1435.039062 960.648438 1436.21875 961.46875 1437.308594 962.398438 C 1466.71875 982.988281 1494.691406 1005.710938 1520.960938 1030.390625 C 1560.828125 1067.871094 1596.800781 1109.898438 1627.960938 1155.949219 C 1628.589844 1156.75 1629.148438 1157.589844 1629.660156 1158.480469 C 1672.738281 1222.710938 1706.519531 1294.691406 1728.550781 1373.019531 C 1803.269531 1414.898438 1882.378906 1441.699219 1962.308594 1454.359375 C 1956.769531 1302.070312 1902.949219 1162.140625 1815.710938 1049.480469 C 1722.160156 928.660156 1590.238281 839.089844 1438.28125 799.078125 Z M 1154.621094 887.320312 L 1149.621094 890.171875 L 1148.53125 890.851562 C 980.054688 988.109375 866.9375 1144.480469 820.28125 1318.640625 C 787.589844 1440.621094 787.492188 1571.339844 823.761719 1696.589844 C 822.511719 1546.878906 866.390625 1403.480469 944.914062 1282.589844 C 1040.429688 1135.539062 1187.191406 1021.800781 1366.269531 970.429688 C 1300.980469 931.691406 1229.511719 903.460938 1154.621094 887.320312 Z M 2181.261719 1683.339844 C 2197.53125 1622.601562 2205.730469 1559.699219 2205.378906 1496.390625 C 2133.210938 1509.390625 2058.859375 1511.859375 1984.859375 1503.160156 C 1983.449219 1503.121094 1982.078125 1502.949219 1980.75 1502.671875 C 1972.851562 1501.691406 1964.960938 1500.589844 1957.070312 1499.359375 C 1872.289062 1486.148438 1788.488281 1458.101562 1709.398438 1414.261719 C 1632.589844 1460.46875 1567.691406 1519.128906 1515.789062 1586.148438 C 1601.421875 1667.21875 1702.371094 1722.710938 1808.929688 1752.578125 C 1921.898438 1784.261719 2041.210938 1787.238281 2155.339844 1761.539062 C 2165.488281 1735.980469 2174.160156 1709.871094 2181.261719 1683.339844 Z M 1853.011719 2111.128906 L 1855.710938 2109.546875 C 1774.320312 2107.5625 1693.148438 2092.394531 1615.71875 2064.050781 C 1529.210938 2032.382812 1447.398438 1984.28125 1375.128906 1919.761719 C 1362.238281 2011.0625 1367.128906 2105.289062 1391.28125 2196.941406 C 1544.640625 2221.167969 1706.960938 2195.132812 1851.929688 2111.804688 Z M 1926.488281 2062.40625 C 2016.039062 1994.679688 2085.578125 1908.449219 2132.828125 1812.300781 C 2021.328125 1832.300781 1906.171875 1826.960938 1796.679688 1796.261719 C 1684.949219 1764.929688 1579.089844 1707.261719 1488.941406 1623.28125 C 1461.421875 1664.078125 1438.378906 1707.46875 1420.058594 1752.660156 C 1405.078125 1789.601562 1393.269531 1827.75 1384.710938 1866.648438 C 1457.550781 1937.050781 1541.800781 1988.660156 1631.339844 2021.433594 C 1726.121094 2056.128906 1826.941406 2069.789062 1926.488281 2062.40625 Z M 1318.421875 2181.476562 C 1326.289062 2183.582031 1334.199219 2185.554688 1342.128906 2187.390625 C 1317.691406 2082.210938 1316.75 1974.359375 1337.390625 1871.101562 C 1337.519531 1870.128906 1337.699219 1869.171875 1337.960938 1868.21875 C 1347.199219 1822.921875 1360.601562 1778.511719 1377.988281 1735.609375 C 1400.769531 1679.410156 1430.410156 1625.800781 1466.53125 1576.160156 C 1467 1575.429688 1467.519531 1574.738281 1468.078125 1574.050781 C 1524.441406 1497.179688 1596.398438 1429.929688 1682.601562 1377.46875 C 1663.339844 1311.871094 1635.300781 1251.109375 1600.128906 1196.160156 C 1419.570312 1248.96875 1275.660156 1368.238281 1188.039062 1520 L 1188 1519.980469 C 1098.058594 1675.808594 1067.46875 1865.941406 1117.429688 2053.539062 C 1117.660156 2054.261719 1117.851562 2055.007812 1118.011719 2055.761719 C 1120.398438 2064.625 1122.941406 2073.339844 1125.589844 2081.855469 C 1127.640625 2088.4375 1129.78125 2094.964844 1132 2101.425781 C 1190.171875 2137.078125 1253.039062 2163.960938 1318.421875 2181.476562 Z M 890.632812 1853.230469 C 938.503906 1936.160156 1000.71875 2005.671875 1072.308594 2060.445312 C 1020.929688 1862.410156 1053.78125 1661.949219 1148.789062 1497.371094 L 1148.828125 1497.300781 L 1148.789062 1497.28125 C 1239.730469 1339.78125 1387.621094 1215.148438 1573.089844 1156.929688 C 1548.039062 1123.128906 1520.160156 1091.871094 1489.878906 1063.410156 C 1467.109375 1042 1442.980469 1022.179688 1417.691406 1004.039062 C 1231.75 1046.230469 1079.441406 1158.640625 982.90625 1307.269531 C 884.929688 1458.109375 844.40625 1646.28125 884.367188 1836.179688 C 884.570312 1836.910156 884.730469 1837.660156 884.859375 1838.410156 L 885.910156 1843.28125 L 885.871094 1843.28125 L 886.488281 1846.050781 L 889.953125 1852.140625 L 890.632812 1853.230469 "/>
</svg>
